<?xml version="1.0" standalone="no"?>
<!DOCTYPE svg PUBLIC "-//W3C//DTD SVG 20010904//EN"
 "http://www.w3.org/TR/2001/REC-SVG-20010904/DTD/svg10.dtd">
<svg version="1.0" xmlns="http://www.w3.org/2000/svg"
 width="165.000000pt" height="300.000000pt" viewBox="0 0 165.000000 300.000000"
 preserveAspectRatio="xMidYMid meet">

<g transform="translate(0.000000,300.000000) scale(0.100000,-0.100000)"
fill="#000000" stroke="none">
<path d="M0 1500 l0 -1501 43 5 c123 16 466 46 530 46 16 0 17 37 17 627 0
345 4 623 9 617 4 -5 104 -281 221 -614 117 -333 215 -610 217 -616 3 -8 50
-15 126 -19 67 -4 201 -15 297 -25 96 -10 178 -16 183 -13 4 2 7 674 7 1494
l0 1489 -295 0 -295 0 0 -652 c0 -369 -4 -646 -9 -638 -8 13 -178 493 -394
1110 l-65 185 -296 3 -296 2 0 -1500z"/>
</g>
</svg>
